<?xml version="1.0" encoding="UTF-8" standalone="no"?>
<!-- Created with Inkscape (http://www.inkscape.org/) -->

<svg
   version="1.1"
   id="svg2"
   width="44"
   height="44.000122"
   viewBox="0 0 44 44.000122"
   sodipodi:docname="vecteezy_modern-letter-h-a-with-shield-shape-security-business-logo_22662177.svg"
   inkscape:export-filename="logo.png"
   inkscape:export-xdpi="75.00029"
   inkscape:export-ydpi="75.00029"
   xmlns:inkscape="http://www.inkscape.org/namespaces/inkscape"
   xmlns:sodipodi="http://sodipodi.sourceforge.net/DTD/sodipodi-0.dtd"
   xmlns="http://www.w3.org/2000/svg"
   xmlns:svg="http://www.w3.org/2000/svg">
  <defs
     id="defs6" />
  <sodipodi:namedview
     id="namedview4"
     pagecolor="#ffffff"
     bordercolor="#000000"
     borderopacity="0.25"
     inkscape:showpageshadow="2"
     inkscape:pageopacity="0.0"
     inkscape:pagecheckerboard="0"
     inkscape:deskcolor="#d1d1d1"
     showgrid="false" />
  <g
     id="g8"
     inkscape:groupmode="layer"
     inkscape:label="ink_ext_XXXXXX"
     transform="matrix(1.3333333,0,0,-1.3333333,-1627.2043,3971.6678)">
    <g
       id="g10"
       transform="matrix(0.1375,0,0,0.1375,-470.4337,-1114.2927)"
       style="stroke-width:0.992126;stroke-dasharray:none">
      <path
         d="m 12536.996,29527.59 h -240 v 240 h 240 v -240"
         style="fill:#17202c;fill-opacity:0;fill-rule:nonzero;stroke:none;stroke-width:0.992126;stroke-dasharray:none"
         id="path12" />
      <g
         id="g1"
         transform="matrix(-1,0,0,1,24943.123,-15.01)"
         style="stroke-width:0.992126;stroke-dasharray:none">
        <path
           d="m 12565.382,29701.957 v 38.468 l 32.242,-8.006 v -30.462 z m 64.941,-29.887 v 90.487 l -98.419,20.043 v -240 c 12.729,5.564 23.824,11.669 33.478,18.13 v 108.529 h 31.993 0.706 v -80.142 c 35.657,40.866 32.242,82.953 32.242,82.953"
           style="fill:#ea1179;fill-opacity:1;fill-rule:nonzero;stroke:none;stroke-width:0.992126;stroke-dasharray:none"
           id="path72" />
        <path
           d="m 12486.77,29694.04 h -32.168 v 75.183 l -32.758,-6.666 v -74.741 c 0,-16.291 -0.235,-31.816 4.193,-47.592 5.387,-19.129 15.379,-36.745 28.505,-51.637 0.02,-0.01 0.03,-0.04 0.06,-0.06 v 72.034 h 32.168 v -99.847 c 9.653,-6.446 20.75,-12.551 33.479,-18.115 v 240 l -33.479,-6.813 v -81.747"
           style="fill:#ea1179;fill-opacity:1;fill-rule:nonzero;stroke:none;stroke-width:0.992126;stroke-dasharray:none"
           id="path74" />
      </g>
    </g>
  </g>
</svg>
