<?xml version="1.0" standalone="no"?>
<svg xmlns:xlink="http://www.w3.org/1999/xlink" id="wave" style="transform:rotate(0deg); transition: 0.3s" viewBox="0 0 1440 490" version="1.1" xmlns="http://www.w3.org/2000/svg"><defs><linearGradient id="sw-gradient-0" x1="0" x2="0" y1="1" y2="0"><stop stop-color="rgba(243, 106, 62, 1)" offset="0%"/><stop stop-color="rgba(255, 179, 11, 1)" offset="100%"/></linearGradient></defs><path style="transform:translate(0, 0px); opacity:1" fill="url(#sw-gradient-0)" d="M0,392L60,343C120,294,240,196,360,204.2C480,212,600,327,720,334.8C840,343,960,245,1080,245C1200,245,1320,343,1440,392C1560,441,1680,441,1800,383.8C1920,327,2040,212,2160,155.2C2280,98,2400,98,2520,114.3C2640,131,2760,163,2880,163.3C3000,163,3120,131,3240,122.5C3360,114,3480,131,3600,171.5C3720,212,3840,278,3960,261.3C4080,245,4200,147,4320,106.2C4440,65,4560,82,4680,122.5C4800,163,4920,229,5040,277.7C5160,327,5280,359,5400,318.5C5520,278,5640,163,5760,163.3C5880,163,6000,278,6120,277.7C6240,278,6360,163,6480,122.5C6600,82,6720,114,6840,114.3C6960,114,7080,82,7200,114.3C7320,147,7440,245,7560,285.8C7680,327,7800,310,7920,261.3C8040,212,8160,131,8280,147C8400,163,8520,278,8580,334.8L8640,392L8640,490L8580,490C8520,490,8400,490,8280,490C8160,490,8040,490,7920,490C7800,490,7680,490,7560,490C7440,490,7320,490,7200,490C7080,490,6960,490,6840,490C6720,490,6600,490,6480,490C6360,490,6240,490,6120,490C6000,490,5880,490,5760,490C5640,490,5520,490,5400,490C5280,490,5160,490,5040,490C4920,490,4800,490,4680,490C4560,490,4440,490,4320,490C4200,490,4080,490,3960,490C3840,490,3720,490,3600,490C3480,490,3360,490,3240,490C3120,490,3000,490,2880,490C2760,490,2640,490,2520,490C2400,490,2280,490,2160,490C2040,490,1920,490,1800,490C1680,490,1560,490,1440,490C1320,490,1200,490,1080,490C960,490,840,490,720,490C600,490,480,490,360,490C240,490,120,490,60,490L0,490Z"/></svg>